<?xml version="1.0" encoding="UTF-8" standalone="no"?>
<!-- Created with Inkscape (http://www.inkscape.org/) -->

<svg
   xmlns:dc="http://purl.org/dc/elements/1.1/"
   xmlns:cc="http://creativecommons.org/ns#"
   xmlns:rdf="http://www.w3.org/1999/02/22-rdf-syntax-ns#"
   xmlns:svg="http://www.w3.org/2000/svg"
   xmlns="http://www.w3.org/2000/svg"
   xmlns:sodipodi="http://sodipodi.sourceforge.net/DTD/sodipodi-0.dtd"
   xmlns:inkscape="http://www.inkscape.org/namespaces/inkscape"
   width="1.7230643in"
   height="1.498263in"
   viewBox="0 0 43.765834 38.05588"
   version="1.1"
   id="svg8"
   inkscape:version="0.92.2 5c3e80d, 2017-08-06"
   sodipodi:docname="irish_coffee.svg">
  <defs
     id="defs2" />
  <sodipodi:namedview
     id="base"
     pagecolor="#ffffff"
     bordercolor="#666666"
     borderopacity="1.0"
     inkscape:pageopacity="0.0"
     inkscape:pageshadow="2"
     inkscape:zoom="2.8"
     inkscape:cx="91.433785"
     inkscape:cy="93.178842"
     inkscape:document-units="mm"
     inkscape:current-layer="g975"
     showgrid="true"
     inkscape:window-width="1175"
     inkscape:window-height="946"
     inkscape:window-x="877"
     inkscape:window-y="0"
     inkscape:window-maximized="0"
     inkscape:snap-others="false"
     inkscape:snap-nodes="false"
     units="in"
     fit-margin-top="0"
     fit-margin-left="0"
     fit-margin-right="0"
     fit-margin-bottom="0">
    <inkscape:grid
       type="xygrid"
       id="grid849"
       originx="-10.049147"
       originy="-246.65227" />
  </sodipodi:namedview>
  <metadata
     id="metadata5">
    <rdf:RDF>
      <cc:Work
         rdf:about="">
        <dc:format>image/svg+xml</dc:format>
        <dc:type
           rdf:resource="http://purl.org/dc/dcmitype/StillImage" />
        <dc:title />
      </cc:Work>
    </rdf:RDF>
  </metadata>
  <g
     inkscape:label="Layer 1"
     inkscape:groupmode="layer"
     id="layer1"
     transform="translate(-10.049146,-12.291847)">
    <g
       id="g900"
       transform="matrix(1.0058568,0,0,1.0058568,-8.1012016,5.8762193)">
      <g
         id="g910"
         transform="matrix(0.73491533,0,0,1.2106575,24.868454,-9.6474839)">
        <g
           id="g904" />
        <g
           id="g975"
           transform="matrix(0.80724915,0,0,1.0689857,-1.7592299,-4.8943839)">
          <g
             id="g844">
            <path
               sodipodi:nodetypes="ccc"
               inkscape:connector-curvature="0"
               id="path855"
               d="M -8.961587,17.179414 C 0.244909,32.961979 -3.700732,44.798902 22.660434,45.777207 48.907817,44.798902 44.962176,32.961979 54.168672,17.179414"
               style="fill:none;stroke:#000000;stroke-width:0.83660078;stroke-linecap:butt;stroke-linejoin:miter;stroke-miterlimit:4;stroke-dasharray:none;stroke-opacity:1" />
            <path
               style="fill:none;stroke:#000000;stroke-width:0.27747068;stroke-linecap:butt;stroke-linejoin:miter;stroke-miterlimit:4;stroke-dasharray:none;stroke-opacity:1"
               d="M -9.241595,17.10025 H 54.105646"
               id="path938"
               inkscape:connector-curvature="0" />
            <path
               style="fill:none;stroke:#000000;stroke-width:0.26989484;stroke-linecap:butt;stroke-linejoin:miter;stroke-miterlimit:4;stroke-dasharray:none;stroke-opacity:1"
               d="M -7.6063636,20.018439 H 52.328941"
               id="path938-8"
               inkscape:connector-curvature="0" />
            <path
               style="fill:none;stroke:#000000;stroke-width:0.83660078;stroke-linecap:butt;stroke-linejoin:miter;stroke-miterlimit:4;stroke-dasharray:none;stroke-opacity:1"
               d="M 50.654814,23.921554 C 68.518039,15.89011 68.665326,39.678208 46.277389,34.277193"
               id="path892"
               inkscape:connector-curvature="0"
               sodipodi:nodetypes="cc" />
            <path
               inkscape:connector-curvature="0"
               id="path828"
               d="M -3.7993247,29.154944 H 48.521902"
               style="fill:none;stroke:#000000;stroke-width:0.25216928;stroke-linecap:butt;stroke-linejoin:miter;stroke-miterlimit:4;stroke-dasharray:none;stroke-opacity:1" />
            <path
               inkscape:connector-curvature="0"
               id="path830"
               d="M 20.430471,45.635329 C 18.210833,45.479123 15.589381,45.146285 13.865098,44.801739 6.6074608,43.351529 2.52884,40.591461 -0.4973217,35.082454 -1.2277403,33.752756 -3.0114806,29.773548 -3.0114806,29.473812 V 29.317307 H 22.765884 48.543251 l -0.104777,0.278959 c -1.081508,2.879384 -2.714232,6.09785 -3.997089,7.879173 -3.673064,5.100243 -9.427683,7.503622 -19.56542,8.171369 -1.96273,0.12928 -2.463728,0.127987 -4.445494,-0.01147 z"
               style="fill:#803300;fill-opacity:1;stroke:#000000;stroke-width:0.10928858;stroke-miterlimit:4;stroke-dasharray:none;stroke-dashoffset:0;stroke-opacity:1" />
            <path
               inkscape:connector-curvature="0"
               id="path832"
               d="m -3.3523599,29.022786 c -0.036781,-0.0518 -0.327299,-0.772416 -0.6455971,-1.60135 -0.7452214,-1.940758 -1.8763261,-4.651275 -2.5725986,-6.164832 -0.3013963,-0.655174 -0.5479932,-1.206227 -0.5479932,-1.224562 0,-0.01834 13.36044,-0.03334 29.6898658,-0.03334 h 29.689867 l -0.213848,0.433307 c -0.505668,1.02462 -1.738272,3.916609 -2.561445,6.009774 -0.488989,1.2434 -0.928623,2.353983 -0.976966,2.467962 l -0.0879,0.207233 H 22.56777 c -20.5401857,0 -25.8669993,-0.01936 -25.9201299,-0.09421 z"
               style="fill:#d45500;fill-opacity:1;stroke:#000000;stroke-width:0.10984991;stroke-miterlimit:4;stroke-dasharray:none;stroke-dashoffset:0;stroke-opacity:1" />
            <path
               inkscape:connector-curvature="0"
               id="path834"
               d="m -8.129237,18.596169 c -0.3419375,-0.685174 -0.6561592,-1.288899 -0.6982707,-1.341609 -0.061092,-0.07647 6.25223,-0.09584 31.2373787,-0.09584 h 31.313944 l -0.592984,1.130882 c -0.326141,0.621987 -0.633164,1.225764 -0.682271,1.341727 l -0.08929,0.210843 -29.933402,-1.17e-4 -29.9334008,-1.17e-4 z"
               style="fill:#e6e6e6;fill-opacity:1;stroke:#000000;stroke-width:0.11084897;stroke-miterlimit:4;stroke-dasharray:none;stroke-dashoffset:0;stroke-opacity:1" />
          </g>
        </g>
      </g>
    </g>
  </g>
</svg>
