<?xml version="1.0" encoding="UTF-8" standalone="no"?>
<!-- Created with Inkscape (http://www.inkscape.org/) -->

<svg
   xmlns:dc="http://purl.org/dc/elements/1.1/"
   xmlns:cc="http://creativecommons.org/ns#"
   xmlns:rdf="http://www.w3.org/1999/02/22-rdf-syntax-ns#"
   xmlns:svg="http://www.w3.org/2000/svg"
   xmlns="http://www.w3.org/2000/svg"
   xmlns:sodipodi="http://sodipodi.sourceforge.net/DTD/sodipodi-0.dtd"
   xmlns:inkscape="http://www.inkscape.org/namespaces/inkscape"
   width="1.7230643in"
   height="1.498263in"
   viewBox="0 0 43.765834 38.05588"
   version="1.1"
   id="svg8"
   inkscape:version="0.92.2 5c3e80d, 2017-08-06"
   sodipodi:docname="marochino.svg">
  <defs
     id="defs2" />
  <sodipodi:namedview
     id="base"
     pagecolor="#ffffff"
     bordercolor="#666666"
     borderopacity="1.0"
     inkscape:pageopacity="0.0"
     inkscape:pageshadow="2"
     inkscape:zoom="3.959798"
     inkscape:cx="37.913937"
     inkscape:cy="80.761482"
     inkscape:document-units="mm"
     inkscape:current-layer="g975"
     showgrid="true"
     inkscape:window-width="1328"
     inkscape:window-height="993"
     inkscape:window-x="781"
     inkscape:window-y="0"
     inkscape:window-maximized="0"
     inkscape:snap-others="false"
     inkscape:snap-nodes="false"
     units="in"
     fit-margin-top="0"
     fit-margin-left="0"
     fit-margin-right="0"
     fit-margin-bottom="0">
    <inkscape:grid
       type="xygrid"
       id="grid849"
       originx="-10.049147"
       originy="-246.65227" />
  </sodipodi:namedview>
  <metadata
     id="metadata5">
    <rdf:RDF>
      <cc:Work
         rdf:about="">
        <dc:format>image/svg+xml</dc:format>
        <dc:type
           rdf:resource="http://purl.org/dc/dcmitype/StillImage" />
        <dc:title />
      </cc:Work>
    </rdf:RDF>
  </metadata>
  <g
     inkscape:label="Layer 1"
     inkscape:groupmode="layer"
     id="layer1"
     transform="translate(-10.049146,-12.291847)">
    <g
       id="g900"
       transform="matrix(1.0058568,0,0,1.0058568,-8.1012016,5.8762193)">
      <g
         id="g910"
         transform="matrix(0.73491533,0,0,1.2106575,24.868454,-9.6474839)">
        <g
           id="g904" />
        <g
           id="g975"
           transform="matrix(0.80724915,0,0,1.0689857,-1.7592299,-4.8943839)">
          <path
             style="fill:none;stroke:#000000;stroke-width:0.83660078;stroke-linecap:butt;stroke-linejoin:miter;stroke-miterlimit:4;stroke-dasharray:none;stroke-opacity:1"
             d="M -8.961587,17.179414 C 0.244909,32.961979 -3.700732,44.798902 22.660434,45.777207 48.907817,44.798902 44.962176,32.961979 54.168672,17.179414"
             id="path855"
             inkscape:connector-curvature="0"
             sodipodi:nodetypes="ccc" />
          <path
             inkscape:connector-curvature="0"
             id="path938"
             d="M -9.241595,17.10025 H 54.105646"
             style="fill:none;stroke:#000000;stroke-width:0.27747068;stroke-linecap:butt;stroke-linejoin:miter;stroke-miterlimit:4;stroke-dasharray:none;stroke-opacity:1" />
          <path
             inkscape:connector-curvature="0"
             id="path938-8"
             d="M -6.309083,22.149205 H 51.61073"
             style="fill:none;stroke:#000000;stroke-width:0.26531807;stroke-linecap:butt;stroke-linejoin:miter;stroke-miterlimit:4;stroke-dasharray:none;stroke-opacity:1" />
          <path
             sodipodi:nodetypes="cc"
             inkscape:connector-curvature="0"
             id="path892"
             d="M 50.654814,23.921554 C 68.518039,15.89011 68.665326,39.678208 46.277389,34.277193"
             style="fill:none;stroke:#000000;stroke-width:0.83660078;stroke-linecap:butt;stroke-linejoin:miter;stroke-miterlimit:4;stroke-dasharray:none;stroke-opacity:1" />
          <path
             style="fill:none;stroke:#000000;stroke-width:0.25174171;stroke-linecap:butt;stroke-linejoin:miter;stroke-miterlimit:4;stroke-dasharray:none;stroke-opacity:1"
             d="M -3.7002547,28.835888 H 48.443691"
             id="path23"
             inkscape:connector-curvature="0" />
          <path
             inkscape:connector-curvature="0"
             id="path25"
             d="M 1.9212393,39.246353 H 42.901373"
             style="fill:none;stroke:#000000;stroke-width:0.22317213;stroke-linecap:butt;stroke-linejoin:miter;stroke-miterlimit:4;stroke-dasharray:none;stroke-opacity:1" />
          <path
             style="fill:#e6e6e6;fill-opacity:1;stroke:#000000;stroke-width:0.11005051;stroke-miterlimit:4;stroke-dasharray:none;stroke-dashoffset:0;stroke-opacity:1"
             d="m -6.2505392,21.819991 c -0.3990084,-0.925657 -1.9715795,-4.10752 -2.25085,-4.55426 -0.078884,-0.126188 1.4764434,-0.132832 31.0965622,-0.132832 h 31.179598 l -0.908019,1.764776 c -0.499413,0.970626 -1.042205,2.080727 -1.206207,2.46689 l -0.298178,0.702116 H 22.609082 -6.1442029 Z"
             id="path27"
             inkscape:connector-curvature="0" />
          <path
             style="fill:#a05a2c;fill-opacity:1;stroke:#000000;stroke-width:0.10915176;stroke-miterlimit:4;stroke-dasharray:none;stroke-dashoffset:0;stroke-opacity:1"
             d="m -3.4594412,28.713607 c 0,-0.136765 -2.5019205,-6.174248 -2.6698244,-6.44266 -0.077152,-0.123333 1.3662703,-0.12986 28.7184766,-0.12986 h 28.799713 l -0.423887,0.946129 c -0.233138,0.520371 -0.849851,2.006349 -1.370472,3.302174 l -0.946588,2.356047 H 22.594268 c -14.3295408,0 -26.0537092,-0.01432 -26.0537092,-0.03183 z"
             id="path29"
             inkscape:connector-curvature="0" />
          <path
             style="fill:#552200;fill-opacity:1;stroke:#000000;stroke-width:0.10860603;stroke-miterlimit:4;stroke-dasharray:none;stroke-dashoffset:0;stroke-opacity:1"
             d="M 2.4570434,39.033322 C 2.108891,38.726104 0.8174803,37.074187 0.3718521,36.366036 -0.66326798,34.721116 -2.3031288,31.332822 -3.0913415,29.210352 L -3.1938111,28.934426 H 22.705717 48.605244 l -0.08094,0.165557 c -0.04452,0.09106 -0.484927,1.109222 -0.978692,2.262593 -1.40905,3.291358 -2.775986,5.627657 -4.229751,7.229266 L 42.79825,39.162087 H 22.700611 c -18.9781517,0 -20.1057701,-0.0072 -20.2435645,-0.128765 z"
             id="path31"
             inkscape:connector-curvature="0" />
          <path
             style="fill:#c87137;fill-opacity:1;stroke:#000000;stroke-width:0.11003904;stroke-miterlimit:4;stroke-dasharray:none;stroke-dashoffset:0;stroke-opacity:1"
             d="M 19.573872,45.289637 C 15.260387,44.923388 12.250009,44.344828 9.3632078,43.327255 7.0852129,42.524284 4.7204552,41.169249 3.3089622,39.858102 L 2.7571361,39.345504 H 22.631411 42.505689 l -0.412332,0.380642 c -1.806358,1.667522 -4.33325,3.045119 -7.253969,3.954682 -4.348853,1.354305 -10.557126,2.008585 -15.265516,1.608809 z"
             id="path33"
             inkscape:connector-curvature="0" />
        </g>
      </g>
    </g>
  </g>
</svg>
